<?xml version="1.0" encoding="UTF-8" standalone="no"?>
<!-- Created with Inkscape (http://www.inkscape.org/) -->

<svg
   width="171.13342mm"
   height="41.448486mm"
   viewBox="0 0 171.13342 41.448486"
   version="1.1"
   id="svg5"
   xml:space="preserve"
   xmlns:xlink="http://www.w3.org/1999/xlink"
   xmlns="http://www.w3.org/2000/svg"
   xmlns:svg="http://www.w3.org/2000/svg"><defs
     id="defs2"><linearGradient
       id="linearGradient1207"><stop
         style="stop-color:#000000;stop-opacity:1;"
         offset="1"
         id="stop1203" /><stop
         style="stop-color:#000000;stop-opacity:0;"
         offset="1"
         id="stop1205" /></linearGradient><linearGradient
       xlink:href="#linearGradient1207"
       id="linearGradient646"
       gradientUnits="userSpaceOnUse"
       x1="15.013243"
       y1="35.355347"
       x2="184.98834"
       y2="35.355347"
       gradientTransform="translate(1.1583333,1.0225465)" /><linearGradient
       xlink:href="#linearGradient1207"
       id="linearGradient1023"
       gradientUnits="userSpaceOnUse"
       gradientTransform="translate(16.476951,150.80978)"
       x1="15.013243"
       y1="35.355347"
       x2="184.98834"
       y2="35.355347" /><linearGradient
       xlink:href="#linearGradient1207"
       id="linearGradient11550"
       gradientUnits="userSpaceOnUse"
       gradientTransform="translate(2.1392511,212.02091)"
       x1="15.013243"
       y1="35.355347"
       x2="184.98834"
       y2="35.355347" /><linearGradient
       xlink:href="#linearGradient1207"
       id="linearGradient11719"
       gradientUnits="userSpaceOnUse"
       gradientTransform="translate(2.1392511,212.02091)"
       x1="15.013243"
       y1="35.355347"
       x2="184.98834"
       y2="35.355347" /><linearGradient
       xlink:href="#linearGradient1207"
       id="linearGradient11721"
       gradientUnits="userSpaceOnUse"
       gradientTransform="translate(2.1392511,212.02091)"
       x1="15.013243"
       y1="35.355347"
       x2="184.98834"
       y2="35.355347" /><linearGradient
       xlink:href="#linearGradient1207"
       id="linearGradient11723"
       gradientUnits="userSpaceOnUse"
       gradientTransform="translate(2.1392511,212.02091)"
       x1="15.013243"
       y1="35.355347"
       x2="184.98834"
       y2="35.355347" /><linearGradient
       xlink:href="#linearGradient1207"
       id="linearGradient11725"
       gradientUnits="userSpaceOnUse"
       gradientTransform="translate(2.1392511,212.02091)"
       x1="15.013243"
       y1="35.355347"
       x2="184.98834"
       y2="35.355347" /><linearGradient
       xlink:href="#linearGradient1207"
       id="linearGradient11727"
       gradientUnits="userSpaceOnUse"
       gradientTransform="translate(2.1392511,212.02091)"
       x1="15.013243"
       y1="35.355347"
       x2="184.98834"
       y2="35.355347" /><linearGradient
       xlink:href="#linearGradient1207"
       id="linearGradient11729"
       gradientUnits="userSpaceOnUse"
       gradientTransform="translate(2.1392511,212.02091)"
       x1="15.013243"
       y1="35.355347"
       x2="184.98834"
       y2="35.355347" /></defs><g
     id="layer1"
     transform="translate(-15.994161,-226.14074)"><g
       aria-label="Symlix"
       id="text640-70"
       style="font-size:38.4346px;letter-spacing:-2.11667px;stroke:url(#linearGradient11550);stroke-width:11.6;paint-order:stroke fill markers"><path
         d="m 33.598881,244.57051 c -2.229207,0 -3.34381,-0.84556 -3.34381,-2.53668 0,-1.57582 1.114603,-2.38294 3.34381,-2.38294 h 12.721853 c 0.576519,0 0.845561,-0.26905 0.845561,-0.84557 v -4.45841 c 0,-0.57652 -0.269042,-0.84556 -0.845561,-0.84556 H 33.598881 c -3.497549,0 -6.149536,0.73026 -7.917528,2.19077 -1.84486,1.46052 -2.728856,3.57442 -2.728856,6.34171 0,2.76729 0.883996,4.91963 2.575118,6.41858 1.767992,1.49895 4.419979,2.26764 8.071266,2.26764 h 3.689722 c 2.229207,0 3.34381,0.84556 3.34381,2.53668 0,1.57582 -1.114603,2.38295 -3.34381,2.38295 H 23.798058 c -0.576519,0 -0.845561,0.26904 -0.845561,0.84556 v 4.45841 c 0,0.57652 0.269042,0.84557 0.845561,0.84557 h 13.490545 c 3.497549,0 6.149536,-0.73026 7.917528,-2.19078 1.84486,-1.46051 2.728856,-3.57442 2.728856,-6.34171 0,-2.76729 -0.883996,-4.91963 -2.575118,-6.41857 -1.767992,-1.49895 -4.419979,-2.26765 -8.071266,-2.26765 z"
         style="font-family:'a Autobus Omnibus';-inkscape-font-specification:'a Autobus Omnibus';fill:#efa0b6;stroke:url(#linearGradient11719)"
         id="path11582" /><path
         d="m 66.227116,253.25673 c 2.575119,-0.38434 4.573718,-1.30677 5.995798,-2.76729 1.92173,-1.96016 2.882595,-4.68902 2.882595,-8.1097 v -8.03283 c 0,-0.57652 -0.269042,-0.84556 -0.845561,-0.84556 h -5.227106 c -0.576519,0 -0.845561,0.26904 -0.845561,0.84556 v 7.9944 c 0,1.57582 -0.422781,2.80572 -1.306776,3.65128 -0.883996,0.84557 -2.152338,1.26835 -3.805026,1.26835 -1.652688,0 -3.036333,-0.42278 -4.074068,-1.26835 -1.037734,-0.84556 -1.575818,-2.07546 -1.575818,-3.65128 v -7.9944 c 0,-0.57652 -0.269042,-0.84556 -0.845561,-0.84556 h -5.227106 c -0.576519,0 -0.845561,0.26904 -0.845561,0.84556 v 8.03283 c 0,3.45912 1.037734,6.18797 3.151637,8.14814 1.42208,1.34521 3.305376,2.2292 5.649886,2.65198 v 7.76379 c 0,0.57652 0.269042,0.84557 0.845561,0.84557 h 5.227106 c 0.576519,0 0.845561,-0.26905 0.845561,-0.84557 z"
         style="font-family:'a Autobus Omnibus';-inkscape-font-specification:'a Autobus Omnibus';fill:#efa0b6;stroke:url(#linearGradient11721)"
         id="path11584" /><path
         d="m 88.631688,232.96326 c -4.189372,0 -6.956663,0.9993 -8.378743,2.9979 -1.422081,1.96017 -2.113903,4.68902 -2.113903,8.1097 v 16.87279 c 0,0.57652 0.269042,0.84557 0.845561,0.84557 h 5.227105 c 0.576519,0 0.845562,-0.26905 0.845562,-0.84557 v -16.87279 c 0,-1.57581 0.230607,-2.80572 0.730257,-3.65128 0.49965,-0.80713 1.575819,-1.22991 3.228507,-1.22991 1.652687,0 2.84416,0.42278 3.497548,1.26834 0.653388,0.84556 0.9993,2.03704 0.9993,3.61285 v 16.87279 c 0,0.57652 0.269042,0.84557 0.845561,0.84557 h 5.227106 c 0.576521,0 0.845561,-0.26905 0.845561,-0.84557 v -16.87279 c 0,-1.57581 0.23061,-2.80572 0.73026,-3.65128 0.49965,-0.80713 1.57582,-1.22991 3.2285,-1.22991 1.65269,0 2.84416,0.42278 3.49755,1.26834 0.65339,0.84556 0.9993,2.03704 0.9993,3.61285 v 16.87279 c 0,0.57652 0.26904,0.84557 0.84556,0.84557 h 5.22711 c 0.57652,0 0.84556,-0.26905 0.84556,-0.84557 v -16.87279 c 0,-3.45911 -0.80713,-6.18797 -2.38294,-8.14813 -1.57582,-1.96017 -4.49685,-2.95947 -8.68622,-2.95947 -4.18938,0 -6.841364,1.07617 -7.879098,3.19008 l -0.153738,-0.23061 c -1.191473,-1.96017 -3.881895,-2.95947 -7.994397,-2.95947 z"
         style="font-family:'a Autobus Omnibus';-inkscape-font-specification:'a Autobus Omnibus';fill:#efa0b6;stroke:url(#linearGradient11723)"
         id="path11586" /><path
         d="m 120.22215,233.50135 c -0.57652,0 -0.84556,0.26904 -0.84556,0.84556 v 26.59674 c 0,0.57652 0.26904,0.84557 0.84556,0.84557 h 21.67711 c 0.57652,0 0.84556,-0.26905 0.84556,-0.84557 v -4.45841 c 0,-0.57652 -0.26904,-0.84556 -0.84556,-0.84556 h -15.60445 v -21.29277 c 0,-0.57652 -0.26904,-0.84556 -0.84556,-0.84556 z"
         style="font-family:'a Autobus Omnibus';-inkscape-font-specification:'a Autobus Omnibus';fill:#efa0b6;stroke:url(#linearGradient11725)"
         id="path11588" /><path
         d="m 146.0474,233.50135 c -0.57652,0 -0.84556,0.26904 -0.84556,0.84556 v 26.59674 c 0,0.57652 0.26904,0.84557 0.84556,0.84557 h 5.22711 c 0.57652,0 0.84556,-0.26905 0.84556,-0.84557 v -26.59674 c 0,-0.57652 -0.26904,-0.84556 -0.84556,-0.84556 z"
         style="font-family:'a Autobus Omnibus';-inkscape-font-specification:'a Autobus Omnibus';fill:#efa0b6;stroke:url(#linearGradient11727)"
         id="path11590" /><path
         d="m 175.17806,247.52998 c 3.57442,-1.96017 5.38084,-6.07267 5.38084,-12.26064 v -0.92243 c 0,-0.57652 -0.26904,-0.84556 -0.84556,-0.84556 h -5.22711 c -0.57651,0 -0.84556,0.26904 -0.84556,0.84556 v 0.92243 c 0,4.26624 -0.38434,6.84136 -1.19147,7.76379 -0.80713,0.884 -2.19077,1.38365 -4.18937,1.49895 -1.9986,-0.1153 -3.38225,-0.61495 -4.18937,-1.49895 -0.80713,-0.92243 -1.19147,-3.49755 -1.19147,-7.76379 v -0.92243 c 0,-0.57652 -0.26905,-0.84556 -0.84557,-0.84556 h -5.2271 c -0.57652,0 -0.84556,0.26904 -0.84556,0.84556 v 0.92243 c 0,6.18797 1.80642,10.30047 5.38084,12.26064 -0.96086,0.26904 -1.80643,0.65339 -2.53668,1.1146 -2.42138,1.42208 -3.61285,5.22711 -3.61285,11.37664 v 0.92243 c 0.0384,0.57652 0.30747,0.84557 0.84556,0.84557 h 5.2271 c 0.57652,-0.0384 0.84556,-0.30748 0.84556,-0.84557 v -0.92243 c 0,-3.9972 0.61496,-6.53388 1.84486,-7.64848 1.03774,-0.96087 2.49825,-1.49895 4.30468,-1.61426 1.80643,0.11531 3.26694,0.65339 4.30467,1.61426 1.22991,1.1146 1.84487,3.65128 1.84487,7.64848 v 0.92243 c 0,0.53809 0.26904,0.80713 0.84556,0.84557 h 5.2271 c 0.53809,0 0.80713,-0.26905 0.84556,-0.84557 v -0.92243 c 0,-6.14953 -1.19147,-9.95456 -3.61285,-11.37664 -0.73026,-0.46121 -1.57582,-0.84556 -2.53668,-1.1146 z"
         style="font-family:'a Autobus Omnibus';-inkscape-font-specification:'a Autobus Omnibus';fill:#efa0b6;stroke:url(#linearGradient11729)"
         id="path11592" /></g><g
       aria-label="Symlix"
       id="text63-36"
       style="font-size:38.4346px;letter-spacing:-2.11667px;display:inline;fill-opacity:0;stroke:#ffd9c0;stroke-width:11.6;paint-order:stroke fill markers"><path
         d="m 32.440546,243.54799 c -2.229206,0 -3.34381,-0.84556 -3.34381,-2.53668 0,-1.57582 1.114604,-2.38295 3.34381,-2.38295 h 12.721853 c 0.576519,0 0.845562,-0.26904 0.845562,-0.84556 v -4.45841 c 0,-0.57652 -0.269043,-0.84556 -0.845562,-0.84556 H 32.440546 c -3.497548,0 -6.149536,0.73025 -7.917527,2.19077 -1.844861,1.46051 -2.728857,3.57442 -2.728857,6.34171 0,2.76729 0.883996,4.91963 2.575118,6.41858 1.767992,1.49895 4.419979,2.26764 8.071266,2.26764 h 3.689722 c 2.229207,0 3.34381,0.84556 3.34381,2.53668 0,1.57582 -1.114603,2.38295 -3.34381,2.38295 H 22.639723 c -0.576519,0 -0.845561,0.26904 -0.845561,0.84556 v 4.45841 c 0,0.57652 0.269042,0.84556 0.845561,0.84556 h 13.490545 c 3.497549,0 6.149536,-0.73025 7.917528,-2.19077 1.844861,-1.46051 2.728857,-3.57442 2.728857,-6.34171 0,-2.76729 -0.883996,-4.91963 -2.575119,-6.41858 -1.767991,-1.49895 -4.419979,-2.26764 -8.071266,-2.26764 z"
         style="font-family:'a Autobus Omnibus';-inkscape-font-specification:'a Autobus Omnibus'"
         id="path11569" /><path
         d="m 65.068782,252.23421 c 2.575118,-0.38434 4.573717,-1.30677 5.995797,-2.76729 1.92173,-1.96016 2.882595,-4.68902 2.882595,-8.1097 v -8.03283 c 0,-0.57652 -0.269042,-0.84556 -0.845561,-0.84556 h -5.227105 c -0.576519,0 -0.845562,0.26904 -0.845562,0.84556 v 7.9944 c 0,1.57581 -0.42278,2.80572 -1.306776,3.65128 -0.883996,0.84556 -2.152338,1.26834 -3.805026,1.26834 -1.652687,0 -3.036333,-0.42278 -4.074067,-1.26834 -1.037735,-0.84556 -1.575819,-2.07547 -1.575819,-3.65128 v -7.9944 c 0,-0.57652 -0.269042,-0.84556 -0.845561,-0.84556 h -5.227106 c -0.576519,0 -0.845561,0.26904 -0.845561,0.84556 v 8.03283 c 0,3.45911 1.037734,6.18797 3.151637,8.14814 1.42208,1.34521 3.305376,2.2292 5.649887,2.65198 v 7.76379 c 0,0.57652 0.269042,0.84556 0.845561,0.84556 h 5.227105 c 0.576519,0 0.845562,-0.26904 0.845562,-0.84556 z"
         style="font-family:'a Autobus Omnibus';-inkscape-font-specification:'a Autobus Omnibus'"
         id="path11571" /><path
         d="m 87.473353,231.94074 c -4.189372,0 -6.956663,0.9993 -8.378743,2.9979 -1.42208,1.96017 -2.113903,4.68902 -2.113903,8.1097 v 16.87279 c 0,0.57652 0.269042,0.84556 0.845561,0.84556 h 5.227106 c 0.576519,0 0.845561,-0.26904 0.845561,-0.84556 v -16.87279 c 0,-1.57582 0.230608,-2.80572 0.730257,-3.65128 0.49965,-0.80713 1.575819,-1.22991 3.228507,-1.22991 1.652688,0 2.84416,0.42278 3.497548,1.26834 0.653389,0.84556 0.9993,2.03703 0.9993,3.61285 v 16.87279 c 0,0.57652 0.269042,0.84556 0.845561,0.84556 h 5.227106 c 0.576519,0 0.845561,-0.26904 0.845561,-0.84556 v -16.87279 c 0,-1.57582 0.230608,-2.80572 0.730255,-3.65128 0.49965,-0.80713 1.57582,-1.22991 3.22851,-1.22991 1.65269,0 2.84416,0.42278 3.49755,1.26834 0.65339,0.84556 0.9993,2.03703 0.9993,3.61285 v 16.87279 c 0,0.57652 0.26904,0.84556 0.84556,0.84556 h 5.2271 c 0.57652,0 0.84557,-0.26904 0.84557,-0.84556 v -16.87279 c 0,-3.45911 -0.80713,-6.18797 -2.38295,-8.14813 -1.57582,-1.96017 -4.49685,-2.95947 -8.68622,-2.95947 -4.189371,0 -6.841358,1.07617 -7.879093,3.19007 l -0.153738,-0.2306 c -1.191473,-1.96017 -3.881895,-2.95947 -7.994397,-2.95947 z"
         style="font-family:'a Autobus Omnibus';-inkscape-font-specification:'a Autobus Omnibus'"
         id="path11573" /><path
         d="m 119.06381,232.47883 c -0.57652,0 -0.84556,0.26904 -0.84556,0.84556 v 26.59674 c 0,0.57652 0.26904,0.84556 0.84556,0.84556 h 21.67712 c 0.57652,0 0.84556,-0.26904 0.84556,-0.84556 v -4.45841 c 0,-0.57652 -0.26904,-0.84556 -0.84556,-0.84556 h -15.60445 v -21.29277 c 0,-0.57652 -0.26904,-0.84556 -0.84556,-0.84556 z"
         style="font-family:'a Autobus Omnibus';-inkscape-font-specification:'a Autobus Omnibus'"
         id="path11575" /><path
         d="m 144.88907,232.47883 c -0.57652,0 -0.84556,0.26904 -0.84556,0.84556 v 26.59674 c 0,0.57652 0.26904,0.84556 0.84556,0.84556 h 5.2271 c 0.57652,0 0.84557,-0.26904 0.84557,-0.84556 v -26.59674 c 0,-0.57652 -0.26905,-0.84556 -0.84557,-0.84556 z"
         style="font-family:'a Autobus Omnibus';-inkscape-font-specification:'a Autobus Omnibus'"
         id="path11577" /><path
         d="m 174.01972,246.50746 c 3.57442,-1.96017 5.38085,-6.07267 5.38085,-12.26064 v -0.92243 c 0,-0.57652 -0.26905,-0.84556 -0.84556,-0.84556 h -5.22711 c -0.57652,0 -0.84556,0.26904 -0.84556,0.84556 v 0.92243 c 0,4.26624 -0.38435,6.84136 -1.19147,7.76379 -0.80713,0.88399 -2.19078,1.38364 -4.18938,1.49895 -1.99859,-0.11531 -3.38224,-0.61496 -4.18937,-1.49895 -0.80712,-0.92243 -1.19147,-3.49755 -1.19147,-7.76379 v -0.92243 c 0,-0.57652 -0.26904,-0.84556 -0.84556,-0.84556 h -5.22711 c -0.57652,0 -0.84556,0.26904 -0.84556,0.84556 v 0.92243 c 0,6.18797 1.80643,10.30047 5.38085,12.26064 -0.96087,0.26904 -1.80643,0.65338 -2.53669,1.1146 -2.42138,1.42208 -3.61285,5.22711 -3.61285,11.37664 v 0.92243 c 0.0384,0.57652 0.30748,0.84556 0.84556,0.84556 h 5.22711 c 0.57652,-0.0384 0.84556,-0.30747 0.84556,-0.84556 v -0.92243 c 0,-3.9972 0.61495,-6.53388 1.84486,-7.64848 1.03773,-0.96087 2.49825,-1.49895 4.30467,-1.61426 1.80643,0.11531 3.26695,0.65339 4.30468,1.61426 1.22991,1.1146 1.84486,3.65128 1.84486,7.64848 v 0.92243 c 0,0.53809 0.26904,0.80713 0.84556,0.84556 h 5.22711 c 0.53808,0 0.80712,-0.26904 0.84556,-0.84556 v -0.92243 c 0,-6.14953 -1.19147,-9.95456 -3.61285,-11.37664 -0.73026,-0.46122 -1.57582,-0.84556 -2.53669,-1.1146 z"
         style="font-family:'a Autobus Omnibus';-inkscape-font-specification:'a Autobus Omnibus'"
         id="path11579" /></g><g
       aria-label="Symlix"
       id="text63-3-6"
       style="font-size:38.4346px;letter-spacing:-2.11667px;fill:#b26695;stroke:#faf0d7;stroke-width:5;paint-order:stroke fill markers"><path
         d="m 32.184618,243.48201 c -2.229206,0 -3.34381,-0.84556 -3.34381,-2.53668 0,-1.57582 1.114604,-2.38295 3.34381,-2.38295 h 12.721853 c 0.576519,0 0.845561,-0.26904 0.845561,-0.84556 v -4.45841 c 0,-0.57652 -0.269042,-0.84556 -0.845561,-0.84556 H 32.184618 c -3.497548,0 -6.149536,0.73026 -7.917527,2.19077 -1.844861,1.46051 -2.728857,3.57442 -2.728857,6.34171 0,2.76729 0.883996,4.91963 2.575118,6.41858 1.767992,1.49895 4.419979,2.26764 8.071266,2.26764 h 3.689722 c 2.229207,0 3.34381,0.84556 3.34381,2.53668 0,1.57582 -1.114603,2.38295 -3.34381,2.38295 H 22.383795 c -0.576519,0 -0.845561,0.26904 -0.845561,0.84556 v 4.45841 c 0,0.57652 0.269042,0.84556 0.845561,0.84556 H 35.87434 c 3.497549,0 6.149536,-0.73025 7.917528,-2.19077 1.844861,-1.46051 2.728856,-3.57442 2.728856,-6.34171 0,-2.76729 -0.883995,-4.91963 -2.575118,-6.41858 -1.767991,-1.49895 -4.419979,-2.26764 -8.071266,-2.26764 z"
         style="font-family:'a Autobus Omnibus';-inkscape-font-specification:'a Autobus Omnibus'"
         id="path11556" /><path
         d="m 64.812854,252.16823 c 2.575118,-0.38434 4.573717,-1.30677 5.995797,-2.76729 1.92173,-1.96016 2.882595,-4.68902 2.882595,-8.1097 v -8.03283 c 0,-0.57652 -0.269042,-0.84556 -0.845561,-0.84556 h -5.227106 c -0.576519,0 -0.845561,0.26904 -0.845561,0.84556 v 7.9944 c 0,1.57581 -0.42278,2.80572 -1.306776,3.65128 -0.883996,0.84556 -2.152338,1.26834 -3.805026,1.26834 -1.652687,0 -3.036333,-0.42278 -4.074067,-1.26834 -1.037735,-0.84556 -1.575819,-2.07547 -1.575819,-3.65128 v -7.9944 c 0,-0.57652 -0.269042,-0.84556 -0.845561,-0.84556 h -5.227106 c -0.576519,0 -0.845561,0.26904 -0.845561,0.84556 v 8.03283 c 0,3.45911 1.037734,6.18797 3.151637,8.14814 1.42208,1.34521 3.305376,2.2292 5.649886,2.65198 v 7.76379 c 0,0.57652 0.269043,0.84556 0.845562,0.84556 h 5.227105 c 0.576519,0 0.845562,-0.26904 0.845562,-0.84556 z"
         style="font-family:'a Autobus Omnibus';-inkscape-font-specification:'a Autobus Omnibus'"
         id="path11558" /><path
         d="m 87.217425,231.87476 c -4.189372,0 -6.956663,0.9993 -8.378743,2.9979 -1.42208,1.96017 -2.113903,4.68902 -2.113903,8.1097 v 16.87279 c 0,0.57652 0.269042,0.84556 0.845561,0.84556 h 5.227106 c 0.576519,0 0.845561,-0.26904 0.845561,-0.84556 v -16.87279 c 0,-1.57582 0.230608,-2.80572 0.730257,-3.65128 0.49965,-0.80713 1.575819,-1.22991 3.228507,-1.22991 1.652688,0 2.84416,0.42278 3.497548,1.26834 0.653389,0.84556 0.9993,2.03703 0.9993,3.61285 v 16.87279 c 0,0.57652 0.269042,0.84556 0.845561,0.84556 h 5.227106 c 0.576519,0 0.845561,-0.26904 0.845561,-0.84556 v -16.87279 c 0,-1.57582 0.230608,-2.80572 0.730258,-3.65128 0.499645,-0.80713 1.575815,-1.22991 3.228505,-1.22991 1.65269,0 2.84416,0.42278 3.49755,1.26834 0.65339,0.84556 0.9993,2.03703 0.9993,3.61285 v 16.87279 c 0,0.57652 0.26904,0.84556 0.84556,0.84556 h 5.22711 c 0.57652,0 0.84556,-0.26904 0.84556,-0.84556 v -16.87279 c 0,-3.45911 -0.80713,-6.18797 -2.38295,-8.14813 -1.57582,-1.96017 -4.49685,-2.95947 -8.68622,-2.95947 -4.189369,0 -6.841356,1.07617 -7.879091,3.19008 l -0.153738,-0.23061 c -1.191473,-1.96017 -3.881895,-2.95947 -7.994397,-2.95947 z"
         style="font-family:'a Autobus Omnibus';-inkscape-font-specification:'a Autobus Omnibus'"
         id="path11560" /><path
         d="m 118.80788,232.41285 c -0.57651,0 -0.84556,0.26904 -0.84556,0.84556 v 26.59674 c 0,0.57652 0.26905,0.84556 0.84556,0.84556 H 140.485 c 0.57652,0 0.84556,-0.26904 0.84556,-0.84556 v -4.45841 c 0,-0.57652 -0.26904,-0.84556 -0.84556,-0.84556 h -15.60445 v -21.29277 c 0,-0.57652 -0.26904,-0.84556 -0.84556,-0.84556 z"
         style="font-family:'a Autobus Omnibus';-inkscape-font-specification:'a Autobus Omnibus'"
         id="path11562" /><path
         d="m 144.63314,232.41285 c -0.57652,0 -0.84556,0.26904 -0.84556,0.84556 v 26.59674 c 0,0.57652 0.26904,0.84556 0.84556,0.84556 h 5.22711 c 0.57652,0 0.84556,-0.26904 0.84556,-0.84556 v -26.59674 c 0,-0.57652 -0.26904,-0.84556 -0.84556,-0.84556 z"
         style="font-family:'a Autobus Omnibus';-inkscape-font-specification:'a Autobus Omnibus'"
         id="path11564" /><path
         d="m 173.76379,246.44148 c 3.57442,-1.96017 5.38085,-6.07267 5.38085,-12.26064 v -0.92243 c 0,-0.57652 -0.26904,-0.84556 -0.84556,-0.84556 h -5.22711 c -0.57652,0 -0.84556,0.26904 -0.84556,0.84556 v 0.92243 c 0,4.26624 -0.38435,6.84136 -1.19147,7.76379 -0.80713,0.88399 -2.19077,1.38364 -4.18937,1.49895 -1.9986,-0.11531 -3.38225,-0.61496 -4.18937,-1.49895 -0.80713,-0.92243 -1.19148,-3.49755 -1.19148,-7.76379 v -0.92243 c 0,-0.57652 -0.26904,-0.84556 -0.84556,-0.84556 h -5.2271 c -0.57652,0 -0.84557,0.26904 -0.84557,0.84556 v 0.92243 c 0,6.18797 1.80643,10.30047 5.38085,12.26064 -0.96087,0.26904 -1.80643,0.65339 -2.53669,1.1146 -2.42138,1.42208 -3.61285,5.22711 -3.61285,11.37664 v 0.92243 c 0.0384,0.57652 0.30748,0.84556 0.84556,0.84556 h 5.22711 c 0.57652,-0.0384 0.84556,-0.30747 0.84556,-0.84556 v -0.92243 c 0,-3.9972 0.61495,-6.53388 1.84486,-7.64848 1.03774,-0.96087 2.49825,-1.49895 4.30468,-1.61426 1.80642,0.11531 3.26694,0.65339 4.30467,1.61426 1.22991,1.1146 1.84486,3.65128 1.84486,7.64848 v 0.92243 c 0,0.53809 0.26904,0.80713 0.84556,0.84556 h 5.22711 c 0.53808,0 0.80713,-0.26904 0.84556,-0.84556 v -0.92243 c 0,-6.14953 -1.19147,-9.95456 -3.61285,-11.37664 -0.73026,-0.46121 -1.57582,-0.84556 -2.53669,-1.1146 z"
         style="font-family:'a Autobus Omnibus';-inkscape-font-specification:'a Autobus Omnibus'"
         id="path11566" /></g></g></svg>
